<?xml version="1.0" encoding="UTF-8" standalone="no"?>
<svg
   xmlns:dc="http://purl.org/dc/elements/1.1/"
   xmlns:cc="http://creativecommons.org/ns#"
   xmlns:rdf="http://www.w3.org/1999/02/22-rdf-syntax-ns#"
   xmlns:svg="http://www.w3.org/2000/svg"
   xmlns="http://www.w3.org/2000/svg"
   xmlns:xlink="http://www.w3.org/1999/xlink"
   xmlns:sodipodi="http://sodipodi.sourceforge.net/DTD/sodipodi-0.dtd"
   xmlns:inkscape="http://www.inkscape.org/namespaces/inkscape"
   inkscape:version="1.0 (4035a4fb49, 2020-05-01)"
   sodipodi:docname="hero-image-mobile.svg"
   version="1.1"
   viewBox="0 0 983.54823 576.15723"
   height="576.15723"
   width="983.54823"
   data-name="Layer 1"
   id="e9ecc617-883f-4dfc-9a55-ce5b125f3ffd">
  <metadata
     id="metadata206">
    <rdf:RDF>
      <cc:Work
         rdf:about="">
        <dc:format>image/svg+xml</dc:format>
        <dc:type
           rdf:resource="http://purl.org/dc/dcmitype/StillImage" />
        <dc:title />
      </cc:Work>
    </rdf:RDF>
  </metadata>
  <sodipodi:namedview
     inkscape:current-layer="e9ecc617-883f-4dfc-9a55-ce5b125f3ffd"
     inkscape:window-maximized="1"
     inkscape:window-y="-8"
     inkscape:window-x="-8"
     inkscape:cy="381.616"
     inkscape:cx="311.61306"
     inkscape:zoom="0.42870244"
     showgrid="false"
     id="namedview204"
     inkscape:window-height="745"
     inkscape:window-width="1366"
     inkscape:pageshadow="2"
     inkscape:pageopacity="0"
     guidetolerance="10"
     gridtolerance="10"
     objecttolerance="10"
     borderopacity="1"
     bordercolor="#666666"
     pagecolor="#ffffff"
     inkscape:document-rotation="0" />
  <defs
     id="defs9">
    <linearGradient
       inkscape:collect="always"
       id="linearGradient1102">
      <stop
         style="stop-color:#146192;stop-opacity:1;"
         offset="0"
         id="stop1098" />
      <stop
         style="stop-color:#0077ff;stop-opacity:1"
         offset="1"
         id="stop1100" />
    </linearGradient>
    <linearGradient
       gradientUnits="userSpaceOnUse"
       gradientTransform="matrix(-0.6881897,0,0,-0.6881897,-254.47947,665.76046)"
       y2="599.34427"
       x2="-566.54523"
       y1="517.53213"
       x1="-566.54523"
       id="ba860033-8b14-4705-9ef7-06625c8932b0">
      <stop
         id="stop2"
         stop-opacity="0.25"
         stop-color="gray"
         offset="0" />
      <stop
         id="stop4"
         stop-opacity="0.12"
         stop-color="gray"
         offset="0.54" />
      <stop
         id="stop6"
         stop-opacity="0.1"
         stop-color="gray"
         offset="1" />
    </linearGradient>
    <linearGradient
       inkscape:collect="always"
       xlink:href="#linearGradient1102"
       id="linearGradient1104"
       x1="-13.23114"
       y1="-45.603645"
       x2="465.63367"
       y2="564.67865"
       gradientUnits="userSpaceOnUse" />
    <linearGradient
       y2="564.67865"
       x2="465.63367"
       y1="-45.603645"
       x1="-13.23114"
       gradientTransform="matrix(-1,0,0,1,869.73879,1.6484375)"
       gradientUnits="userSpaceOnUse"
       id="linearGradient929"
       xlink:href="#linearGradient1102"
       inkscape:collect="always" />
    <linearGradient
       y2="564.67865"
       x2="465.63367"
       y1="-45.603645"
       x1="-13.23114"
       gradientTransform="matrix(0.61516802,-0.19859877,0.19859877,0.61516802,297.79287,143.74204)"
       gradientUnits="userSpaceOnUse"
       id="linearGradient933"
       xlink:href="#linearGradient1102"
       inkscape:collect="always" />
  </defs>
  <path
     sodipodi:nodetypes="ccaascaaaazsacc"
     d="m 0,0 v 410.3794 c 3.0810634,5.95882 5.3468295,12.00006 9.9647893,16.44475 70.7025727,68.04968 161.6272007,121.54894 257.4227407,142.82864 41.50438,9.21965 88.69186,5.88407 127.24132,-8.84184 10e-4,-4.5e-4 0.002,4.2e-4 0.004,0 58.20623,-13.60775 122.5725,-81.00127 184.55007,-120.42903 32.66153,-20.778 86.76678,-24.36962 98.70001,-61.19484 C 698.02066,317.04446 648.95248,244.82603 603.54958,197.86016 572.02736,165.25281 522.45341,156.50922 479.47644,142.02234 446.4774,130.89886 402.25696,117.43077 377.69479,118.4742 353.1326,119.51763 358.52399,118.01683 336.74023,115.08773 314.95609,112.15865 286.42216,95.338631 262.40611,83.037942 214.45869,58.479942 174.63127,28.07667 123.75848,0 Z"
     style="opacity:0.25;fill:#0077ff;fill-opacity:1;stroke:none;stroke-width:1.0069px;stroke-linecap:butt;stroke-linejoin:miter;stroke-opacity:1"
     id="path1096" />
  <path
     style="fill:#ffffff;stroke-width:0.863027"
     d="m 87.122164,373.55918 a 3.02059,3.02059 0 0 0 0,6.04118 h 76.809186 a 3.02059,3.02059 0 0 0 0,-6.04118 z"
     fill="#e6e6e6"
     id="path1090" />
  <circle
     id="circle61"
     fill="#e6e6e6"
     r="5.8800802"
     cy="230.85889"
     cx="142.65628"
     style="stroke-width:0.863027" />
  <circle
     id="circle77"
     fill="#6c63ff"
     r="5.8800802"
     cy="260.99741"
     cx="231.95091"
     style="opacity:0.6;fill:#0077ff;fill-opacity:1;stroke-width:0.863027" />
  <circle
     id="circle115"
     fill="#6c63ff"
     r="5.8800802"
     cy="351.41287"
     cx="291.48071"
     style="opacity:0.6;fill:#0077ff;fill-opacity:1;stroke-width:0.863027" />
  <circle
     id="circle133"
     fill="#6c63ff"
     r="5.8800888"
     cy="381.55142"
     cx="380.77545"
     style="fill:#0075fc;fill-opacity:0.639216;stroke-width:0.863027" />
  <circle
     id="circle197"
     fill="#6c63ff"
     r="18.123516"
     cy="505.37195"
     cx="236.93561"
     style="opacity:0.6;fill:#146192;fill-opacity:1;stroke-width:0.863027" />
  <circle
     id="circle71"
     fill="#e6e6e6"
     r="5.8800802"
     cy="216.20427"
     cx="142.65628"
     style="stroke-width:0.863027" />
  <circle
     id="circle83"
     fill="#e6e6e6"
     r="5.8800802"
     cy="230.85889"
     cx="142.65628"
     style="stroke-width:0.863027" />
  <circle
     id="circle93"
     fill="#e6e6e6"
     r="5.8800802"
     cy="276.48126"
     cx="142.65628"
     style="stroke-width:0.863027" />
  <g
     id="g998"
     transform="matrix(0.79987736,0,0,0.79987736,-173.09704,-19.236739)">
    <circle
       style="opacity:0.6;fill:#146192;fill-opacity:1;stroke-width:1.07895"
       cx="280.49438"
       cy="540.44739"
       r="22.657869"
       fill="#6c63ff"
       id="circle986" />
    <g
       transform="translate(232.125,185.44331)"
       id="g992">
      <path
         id="path988"
         fill="#e6e6e6"
         d="m 100.69828,339.89881 a 3.7763117,3.7763117 0 0 0 0,7.55262 h 96.02621 a 3.7763117,3.7763117 0 0 0 0,-7.55262 z"
         style="fill:#1164a2;fill-opacity:0.701961;stroke-width:1.07895" />
      <path
         id="path990"
         fill="#e6e6e6"
         d="m 100.69828,362.55668 a 3.7763117,3.7763117 0 0 0 0,7.55262 h 178.02613 a 3.7763117,3.7763117 0 0 0 0,-7.55262 z"
         style="fill:#1164a2;fill-opacity:0.701961;stroke-width:1.07895" />
    </g>
  </g>
  <circle
     id="circle149"
     fill="#e6e6e6"
     r="5.8800802"
     cy="397.03531"
     cx="142.65628"
     style="stroke-width:0.863027" />
  <circle
     id="circle169"
     fill="#e6e6e6"
     transform="rotate(-89.767378)"
     r="5.8800788"
     cy="144.38603"
     cx="-426.59012"
     style="stroke-width:0.86302" />
  <path
     id="path191"
     fill="#e6e6e6"
     d="m 68.214298,321.63185 a 3.02059,3.02059 0 0 0 0,6.04118 h 83.713392 a 3.02059,3.02059 0 0 0 0,-6.04118 z"
     style="stroke-width:0.863027" />
  <path
     id="path13"
     fill="url(#ba860033-8b14-4705-9ef7-06625c8932b0)"
     d="m 143.56025,303.74868 c 0.64514,2.07122 1.21672,4.04625 1.69771,5.74397 l -0.29994,0.10751 c -0.37351,-1.57322 -0.84886,-3.61049 -1.39777,-5.85148 z m -17.90541,-50.42248 -0.0905,0.0508 0.0849,-0.0792 z"
     style="fill:url(#ba860033-8b14-4705-9ef7-06625c8932b0);stroke-width:0.688189" />
  <path
     id="path15"
     fill="#2f2e41"
     d="m 103.70892,544.67869 c -3.36717,1.08087 -5.896763,21.78183 -5.896763,21.78183 l 20.938633,5.17244 c 0,0 14.68528,2.16741 21.66297,0 6.9777,-2.16741 6.73999,-8.18303 -3.24831,-9.14508 -9.9883,-0.96205 -17.09046,-13.83648 -17.09046,-13.83648 0,0 -12.99891,-5.05355 -16.36607,-3.97271 z"
     style="stroke-width:0.688189" />
  <path
     id="path17"
     fill="#2f2e41"
     d="m 79.137124,548.88905 a 12.610828,12.610828 0 0 1 -0.814898,4.86119 42.477657,42.477657 0 0 0 -2.105182,15.76053 q 0.06791,0.95638 0.152785,2.00333 c 0.724377,8.30191 20.808481,3.13516 22.144021,2.16744 1.33553,-0.96771 -3.961369,-24.79247 -3.961369,-24.79247 0,0 -15.749226,-3.36716 -15.415357,-2e-5 z"
     style="stroke-width:0.688189" />
  <path
     id="path19"
     fill="#ffb9b9"
     d="m 101.12263,247.25341 a 0.06199212,0.06199212 0 0 1 0.0113,0.0227 c 0.42444,1.04122 16.19632,39.71548 13.34412,27.06739 a 7.7358372,7.7358372 0 0 1 -0.16978,-1.14309 c -0.24334,-3.10682 1.22239,-6.52494 3.58222,-9.92039 a 48.899884,48.899884 0 0 1 4.99699,-5.976 c 0.9111,-0.94506 1.85616,-1.86749 2.81255,-2.76164 2.62582,-2.46166 5.35917,-4.714 7.78123,-6.59281 4.35185,-3.39546 7.71335,-5.55156 7.71335,-5.55156 0,0 -30.5025,-35.56174 -28.34073,-20.21996 0.59425,4.2047 3.07289,8.39811 1.39215,12.29156 a 21.242586,21.242586 0 0 1 -4.60651,6.58152 34.857325,34.857325 0 0 1 -4.98565,4.09152 c -0.76396,0.51495 -1.45439,0.94505 -2.01463,1.2733 -0.93373,0.54888 -1.51663,0.83749 -1.51663,0.83749 z"
     style="fill:#ffcccc;fill-opacity:1;stroke-width:0.688189" />
  <path
     id="path21"
     fill="#ffb9b9"
     d="m 205.71399,293.11525 c 0,0 1.19972,-0.66778 3.01064,-1.46571 5.32522,-2.32021 15.95862,-5.71567 17.29984,3.63313 1.80524,12.54057 -10.1524,11.09749 -10.1524,11.09749 a 55.865768,55.865768 0 0 0 -7.2493,-2.20139 9.3121426,9.3121426 0 0 0 -3.71803,-0.23203 z"
     style="fill:#ffcccc;fill-opacity:1;stroke-width:0.688189" />
  <circle
     id="circle85"
     fill="#e6e6e6"
     r="5.8800802"
     cy="291.13589"
     cx="172.42114"
     style="fill:#ffffff;fill-opacity:1;stroke-width:0.863027" />
  <circle
     id="circle87"
     fill="#e6e6e6"
     r="5.8800802"
     cy="291.13589"
     cx="202.18605"
     style="fill:#ffffff;fill-opacity:1;stroke-width:0.863027" />
  <circle
     id="circle173"
     fill="#e6e6e6"
     transform="rotate(-89.767378)"
     r="5.8800788"
     cy="144.69016"
     cx="-501.52066"
     style="fill:#ffffff;fill-opacity:1;stroke-width:0.86302" />
  <circle
     id="circle63"
     fill="#e6e6e6"
     r="5.8800802"
     cy="230.85889"
     cx="172.42114"
     style="fill:#ffffff;fill-opacity:1;stroke-width:0.863027" />
  <circle
     id="circle65"
     fill="#e6e6e6"
     r="5.8800802"
     cy="230.85889"
     cx="202.18605"
     style="fill:#ffffff;fill-opacity:1;stroke-width:0.863027" />
  <circle
     id="circle67"
     fill="#e6e6e6"
     r="5.8800802"
     cy="230.85889"
     cx="231.95091"
     style="fill:#ffffff;fill-opacity:1;stroke-width:0.863027" />
  <circle
     id="circle69"
     fill="#e6e6e6"
     r="5.8800802"
     cy="230.85889"
     cx="261.71585"
     style="fill:#ffffff;fill-opacity:1;stroke-width:0.863027" />
  <circle
     id="circle73"
     fill="#e6e6e6"
     r="5.8800802"
     cy="260.99741"
     cx="172.42114"
     style="fill:#0076ff;fill-opacity:0.776471;stroke-width:0.863027" />
  <circle
     id="circle75"
     fill="#e6e6e6"
     r="5.8800802"
     cy="260.99741"
     cx="202.18605"
     style="fill:#ffffff;fill-opacity:1;stroke-width:0.863027" />
  <circle
     id="circle79"
     fill="#e6e6e6"
     r="5.8800802"
     cy="260.99741"
     cx="261.71585"
     style="fill:#ffffff;fill-opacity:1;stroke-width:0.863027" />
  <circle
     id="circle89"
     fill="#e6e6e6"
     r="5.8800802"
     cy="291.13589"
     cx="231.95091"
     style="fill:#ffffff;fill-opacity:1;stroke-width:0.863027" />
  <circle
     id="circle91"
     fill="#e6e6e6"
     r="5.8800802"
     cy="291.13589"
     cx="261.71585"
     style="fill:#ffffff;fill-opacity:1;stroke-width:0.863027" />
  <circle
     id="circle95"
     fill="#e6e6e6"
     r="5.8800802"
     cy="321.27441"
     cx="172.42114"
     style="fill:#ffffff;fill-opacity:1;stroke-width:0.863027" />
  <circle
     id="circle97"
     fill="#e6e6e6"
     r="5.8800802"
     cy="321.27441"
     cx="202.18605"
     style="fill:#ffffff;fill-opacity:1;stroke-width:0.863027" />
  <circle
     id="circle99"
     fill="#e6e6e6"
     r="5.8800802"
     cy="321.27441"
     cx="231.95091"
     style="fill:#ffffff;fill-opacity:1;stroke-width:0.863027" />
  <circle
     id="circle101"
     fill="#e6e6e6"
     r="5.8800802"
     cy="321.27441"
     cx="261.71585"
     style="fill:#ffffff;fill-opacity:1;stroke-width:0.863027" />
  <circle
     id="circle103"
     fill="#e6e6e6"
     r="5.8800802"
     cy="321.27441"
     cx="291.48071"
     style="fill:#ffffff;fill-opacity:1;stroke-width:0.863027" />
  <circle
     id="circle105"
     fill="#e6e6e6"
     r="5.8800802"
     cy="321.27441"
     cx="321.24564"
     style="fill:#ffffff;fill-opacity:1;stroke-width:0.863027" />
  <circle
     id="circle107"
     fill="#e6e6e6"
     r="5.8800802"
     cy="321.27441"
     cx="351.0105"
     style="fill:#ffffff;fill-opacity:1;stroke-width:0.863027" />
  <circle
     id="circle109"
     fill="#e6e6e6"
     r="5.8800888"
     cy="321.27441"
     cx="380.77545"
     style="fill:#ffffff;fill-opacity:1;stroke-width:0.863027" />
  <circle
     id="circle111"
     fill="#e6e6e6"
     r="5.8800888"
     cy="321.27441"
     cx="410.54028"
     style="fill:#ffffff;fill-opacity:1;stroke-width:0.863027" />
  <circle
     id="circle113"
     fill="#e6e6e6"
     r="5.8800802"
     cy="351.41287"
     cx="261.71585"
     style="fill:#ffffff;fill-opacity:1;stroke-width:0.863027" />
  <circle
     id="circle117"
     fill="#e6e6e6"
     r="5.8800802"
     cy="351.41287"
     cx="321.24564"
     style="fill:#ffffff;fill-opacity:1;stroke-width:0.863027" />
  <circle
     id="circle119"
     fill="#e6e6e6"
     r="5.8800802"
     cy="351.41287"
     cx="351.0105"
     style="fill:#ffffff;fill-opacity:1;stroke-width:0.863027" />
  <circle
     id="circle121"
     fill="#e6e6e6"
     r="5.8800888"
     cy="351.41287"
     cx="380.77545"
     style="fill:#ffffff;fill-opacity:1;stroke-width:0.863027" />
  <circle
     id="circle123"
     fill="#e6e6e6"
     r="5.8800888"
     cy="351.41287"
     cx="410.54028"
     style="fill:#ffffff;fill-opacity:1;stroke-width:0.863027" />
  <circle
     id="circle125"
     fill="#e6e6e6"
     r="5.8800802"
     cy="381.55142"
     cx="261.71585"
     style="fill:#ffffff;fill-opacity:1;stroke-width:0.863027" />
  <circle
     id="circle127"
     fill="#e6e6e6"
     r="5.8800802"
     cy="381.55142"
     cx="291.48071"
     style="fill:#ffffff;fill-opacity:1;stroke-width:0.863027" />
  <circle
     id="circle129"
     fill="#e6e6e6"
     r="5.8800802"
     cy="381.55142"
     cx="321.24564"
     style="fill:#ffffff;fill-opacity:1;stroke-width:0.863027" />
  <circle
     id="circle131"
     fill="#e6e6e6"
     r="5.8800802"
     cy="381.55142"
     cx="351.0105"
     style="fill:#ffffff;fill-opacity:1;stroke-width:0.863027" />
  <circle
     id="circle135"
     fill="#e6e6e6"
     r="5.8800888"
     cy="381.55142"
     cx="410.54028"
     style="fill:#ffffff;fill-opacity:1;stroke-width:0.863027" />
  <circle
     id="circle137"
     fill="#e6e6e6"
     r="5.8800802"
     cy="411.68988"
     cx="261.71585"
     style="fill:#ffffff;fill-opacity:1;stroke-width:0.863027" />
  <circle
     id="circle139"
     fill="#e6e6e6"
     r="5.8800802"
     cy="411.68988"
     cx="291.48071"
     style="fill:#ffffff;fill-opacity:1;stroke-width:0.863027" />
  <circle
     id="circle141"
     fill="#e6e6e6"
     r="5.8800802"
     cy="411.68988"
     cx="321.24564"
     style="fill:#ffffff;fill-opacity:1;stroke-width:0.863027" />
  <circle
     id="circle143"
     fill="#e6e6e6"
     r="5.8800802"
     cy="411.68988"
     cx="351.0105"
     style="fill:#ffffff;fill-opacity:1;stroke-width:0.863027" />
  <circle
     id="circle145"
     fill="#e6e6e6"
     r="5.8800888"
     cy="411.68988"
     cx="380.77545"
     style="fill:#ffffff;fill-opacity:1;stroke-width:0.863027" />
  <circle
     id="circle147"
     fill="#e6e6e6"
     r="5.8800888"
     cy="411.68988"
     cx="410.54028"
     style="fill:#ffffff;fill-opacity:1;stroke-width:0.863027" />
  <circle
     id="circle151"
     fill="#e6e6e6"
     r="5.8800802"
     cy="441.82843"
     cx="172.42114"
     style="fill:#ffffff;fill-opacity:1;stroke-width:0.863027" />
  <circle
     id="circle153"
     fill="#e6e6e6"
     r="5.8800802"
     cy="441.82843"
     cx="202.18605"
     style="fill:#ffffff;fill-opacity:1;stroke-width:0.863027" />
  <circle
     id="circle155"
     fill="#e6e6e6"
     r="5.8800802"
     cy="441.82843"
     cx="231.95091"
     style="fill:#ffffff;fill-opacity:1;stroke-width:0.863027" />
  <circle
     id="circle157"
     fill="#e6e6e6"
     r="5.8800802"
     cy="441.82843"
     cx="261.71585"
     style="fill:#0076ff;fill-opacity:0.701961;stroke-width:0.863027" />
  <circle
     id="circle159"
     fill="#e6e6e6"
     r="5.8800802"
     cy="441.82843"
     cx="291.48071"
     style="fill:#ffffff;fill-opacity:1;stroke-width:0.863027" />
  <circle
     id="circle161"
     fill="#e6e6e6"
     r="5.8800802"
     cy="441.82843"
     cx="321.24564"
     style="fill:#ffffff;fill-opacity:1;stroke-width:0.863027" />
  <circle
     id="circle163"
     fill="#e6e6e6"
     r="5.8800802"
     cy="441.82843"
     cx="351.0105"
     style="fill:#ffffff;fill-opacity:1;stroke-width:0.863027" />
  <circle
     id="circle165"
     fill="#e6e6e6"
     r="5.8800888"
     cy="441.82843"
     cx="380.77545"
     style="fill:#0076ff;fill-opacity:0.701961;stroke-width:0.863027" />
  <circle
     id="circle171"
     fill="#e6e6e6"
     r="5.8800888"
     cy="471.96692"
     cx="172.42114"
     style="fill:#0076ff;fill-opacity:0.776471;stroke-width:0.863027" />
  <circle
     id="circle175"
     fill="#e6e6e6"
     r="5.8800888"
     cy="502.10541"
     cx="172.42114"
     style="fill:#ffffff;fill-opacity:1;stroke-width:0.863027" />
  <path
     id="path199"
     fill="#e6e6e6"
     d="m 278.79231,493.28961 a 3.0205862,3.0205862 0 0 0 0,6.04116 h 76.80918 a 3.0205862,3.0205862 0 0 0 0,-6.04116 z"
     style="fill:#1164a2;fill-opacity:0.701961;stroke-width:0.863027" />
  <path
     id="path201"
     fill="#e6e6e6"
     d="m 278.79231,511.41312 a 3.0205862,3.0205862 0 0 0 0,6.04117 h 142.39906 a 3.0205862,3.0205862 0 0 0 0,-6.04117 z"
     style="fill:#1164a2;fill-opacity:0.701961;stroke-width:0.863027" />
  <path
     id="path23"
     fill="#e6e6e6"
     d="m 203.89178,304.98802 h 3.59917 c 2.09388,-2.82956 0.49233,-13.58181 0.49233,-13.58181 l -3.12948,0.5659 z"
     style="fill:#c0c0c0;fill-opacity:1;stroke-width:0.688189" />
  <path
     id="path25"
     fill="#2f2e41"
     d="m 139.57059,323.14237 0.59988,31.6456 3.96135,14.92303 c 0,0 1.94673,14.442 4.33484,13.23664 2.38813,-1.20537 12.57449,2.22401 12.57449,2.22401 l 0.48104,-5.35349 -3.42944,-31.46456 -2.64846,-15.70397 c 0,0 -1.50533,-12.33682 -2.64844,-19.5578 -1.14311,-7.22098 -10.707,-1.49967 -10.707,-1.49967 z"
     style="stroke-width:0.688189" />
  <path
     id="path27"
     fill="#2f2e41"
     d="m 151.01889,307.44405 c 6.50228,-1.82224 14.89472,0 14.89472,0 l 37.91589,0.83752 c 6.76826,-8.93571 2.07689,-17.32813 2.07689,-17.32813 0,0 -18.59576,-0.73001 -33.66591,-2.98232 -15.07017,-2.25233 -24.99619,-13.44601 -24.99619,-13.44601 z"
     style="stroke-width:0.688189" />
  <path
     id="path29"
     style="isolation:isolate;stroke-width:0.688189"
     opacity="0.1"
     d="m 112.85402,222.17857 c -2.16178,-15.34181 28.34073,20.21992 28.34073,20.21992 0,0 -3.3615,2.1561 -7.71334,5.55156 -0.4018,0.0283 -0.80362,0.0283 -1.21672,0.0283 -9.33186,0 -15.76624,-5.84018 -19.46728,-13.7629 1.48834,-3.52561 0.72438,-7.33983 0.0567,-12.03688 z" />
  <path
     id="path31"
     fill="#ffb9b9"
     d="m 110.28469,226.91364 a 20.851343,20.851343 0 1 1 7e-5,0.10139 q -1.4e-4,-0.0506 -7e-5,-0.10139 z"
     style="fill:#ffcccc;fill-opacity:1;stroke-width:0.688189" />
  <path
     id="path33"
     fill="#e6e6e6"
     d="m 100.00225,316.52689 1.13182,-69.27289 12.09345,6.33252 10.0336,2.37682 2.54093,-1.48267 0.18109,-0.10752 0.4131,-0.23769 c 0,0 0.13582,0.29426 0.39616,0.83189 2.19572,4.6461 12.88008,27.36734 12.65374,29.31407 -0.23768,2.16176 7.62269,29.41538 7.62269,29.41538 v 0 l -3.79148,25.81166 c 0,0 7.19269,17.92804 5.29123,24.54911 -1.90144,6.62108 -53.76137,2.04292 -53.76137,2.04292 z"
     style="stroke-width:0.688189" />
  <path
     id="path35"
     fill="#2f2e41"
     d="m 120.25608,258.10245 4.02927,5.17243 0.65082,1.51099 a 48.719805,48.719805 0 0 1 3.85949,16.8075 v 6.71167 l 0.84321,53.7896 4.63472,8.2679 0.8432,-10.23161 -1.86183,-57.58123 -2.52959,-13.01585 -1.38084,-8.24529 a 36.492395,36.492395 0 0 1 -1.92972,-4.45371 c -1.38078,-3.54826 -4.93471,-2.58621 -4.93471,-2.58621 z"
     style="stroke-width:0.688189" />
  <path
     id="path37"
     fill="#e6e6e6"
     d="m 102.52044,246.12726 0.11883,0.28861 0.84319,2.07122 0.95072,2.31457 a 19.308655,19.308655 0 0 1 3.1012,2.45606 c 3.21437,2.88613 7.87745,7.52658 10.35612,10.02224 1.04692,1.05257 1.7034,1.72037 1.7034,1.72037 1.22801,-1.09222 2.46165,-4.74232 3.29359,-7.69637 0.13581,-0.46972 0.25464,-0.92245 0.36782,-1.34121 0.41877,-1.60152 0.67345,-2.75597 0.67345,-2.75597 -3.15213,-1.12615 -10.50895,-8.31884 -14.28922,-12.15572 a 34.857325,34.857325 0 0 1 -4.98564,4.09152 c -0.21506,-0.59986 -2.13346,0.98468 -2.13346,0.98468 z"
     style="stroke-width:0.688189" />
  <path
     id="path39"
     fill="#2f2e41"
     d="m 128.84095,255.82749 c 2.3598,1.44307 6.19666,3.32191 10.45232,3.53694 0,0 9.21864,4.87813 10.92769,21.57244 1.70906,16.69432 8.93006,66.87346 8.93006,66.87346 0,0 6.42873,33.8357 1.90148,37.34999 l -5.05358,-41.41887 c 0,0 -8.84515,-23.92095 -9.48461,-28.34638 -0.56593,-4.02926 -7.60017,-26.0601 -8.83384,-29.91959 -0.12452,-0.36219 -0.18676,-0.56592 -0.18676,-0.56592 l -7.03425,-19.8917 -4.06323,-10.88808 a 22.070107,22.070107 0 0 0 2.44472,1.69771 z"
     style="stroke-width:0.688189" />
  <path
     id="path41"
     fill="#2f2e41"
     d="m 78.322201,483.19272 c 0,0 7.096488,-48.98508 5.172439,-55.59488 -1.924049,-6.60981 1.324246,-55.45906 1.324246,-55.45906 l 1.069579,-9.16205 0.59986,-5.16677 0.254658,-2.16177 1.239338,0.37919 a 182.84472,182.84472 0 0 0 36.665239,6.72299 27.967423,27.967423 0 0 0 8.20566,-0.65645 c 4.91209,-1.12049 14.40806,-2.49566 16.06617,-3.67274 0,0 0.56591,1.52228 1.2733,4.01229 1.62982,5.75528 4.08587,16.75655 2.19573,26.12801 l -2.89177,18.95227 c 0,0 -1.13748,19.31448 -4.87248,30.87032 l -3.30494,15.76054 -4.3349,32.12665 a 192.4089,192.4089 0 0 0 -4.6348,26.03181 c -1.57887,14.56649 -10.59383,38.73078 -10.59383,38.73078 0,0 -19.16167,2.64844 -19.72758,-3.84819 l 6.62114,-50.6658 6.13447,-72.5608 c 0,0 -6.64943,45.27269 -10.46931,55.02329 0,0 -5.296904,55.57789 -7.102155,64.14009 -1.805251,8.56221 -3.004971,10.82585 -3.004971,10.82585 0,0 -11.1937,4.09719 -16.247261,-3.486 0,0 -1.443091,-22.49485 -2.523965,-30.55906 -1.086505,-8.07555 2.886133,-36.71051 2.886133,-36.71051 z"
     style="stroke-width:0.688189" />
  <path
     id="path43"
     fill="#ffb9b9"
     d="m 87.122164,373.55918 7.922721,3.85388 -9.445016,17.80915 C 82.051614,391.91163 82.470374,378.7373 82.470374,378.7373 Z"
     style="stroke-width:0.688189" />
  <polygon
     id="polygon45"
     fill="#e6e6e6"
     points="125.728,296.459 116.198,299.954 115.408,292.956 127.472,281.765 132.718,285.876 "
     transform="matrix(0.6881897,0,0,0.6881897,2.804323,179.65173)" />
  <path
     style="opacity:0.1;stroke-width:0.688189"
     d="m 148.92505,358.48903 a 0.17141429,0.17141429 0 0 1 -0.034,-0.0849 2.9997776,2.9997776 0 0 1 -0.3169,0.1811 z"
     id="path47" />
  <path
     id="path51"
     fill="#2f2e41"
     d="m 59.703751,383.54694 c 4.329223,5.05354 23.202268,5.95902 23.202268,5.95902 l 14.707984,-23.17959 3.967037,-6.24766 c 0,0 4.41974,-3.06722 12.72729,-16.88105 8.30753,-13.8138 8.02458,-24.45292 7.56619,-32.39827 -0.45838,-7.94535 -5.65909,-30.77979 -5.65909,-30.77979 a 64.090839,64.090839 0 0 0 -1.9071,-6.8192 c -1.80525,-5.69304 -4.53857,-13.60446 -6.77393,-19.94262 -0.4018,-1.14314 -0.78659,-2.23534 -1.15446,-3.25397 -0.67906,-1.93544 2.77296,-9.30922 2.77296,-9.30922 -1.21669,2.43907 -8.87911,6.45135 -11.544552,8.13211 -7.18701,4.52727 -17.220575,6.38344 -17.220575,6.38344 -16.15669,2.34854 -13.174345,19.04284 -13.174345,19.04284 0,0 -0.18109,64.89277 0.814914,72.65706 0.996003,7.76428 -8.324591,36.6369 -8.324591,36.6369 z"
     style="stroke-width:0.688189" />
  <path
     id="path53"
     style="isolation:isolate;stroke-width:0.688189"
     opacity="0.1"
     d="m 67.915148,274.24786 c 0,0 -6.858815,29.78944 -8.754592,48.19845 -1.895777,18.40901 5.234654,30.14032 5.234654,30.14032 l 15.251252,33.84701 c 5.234654,-1.34688 15.885068,-12.45 15.885068,-12.45 l -15.279544,-42.33 c 0,0 5.664747,-21.37437 9.207348,-41.06235 3.542592,-19.68797 -5.845848,-28.5218 -5.845848,-28.5218 -15.703968,-5.95336 -15.698338,12.17837 -15.698338,12.17837 z" />
  <path
     id="path55"
     fill="#2f2e41"
     d="m 67.190801,274.24786 c 0,0 -6.858815,29.78944 -8.754592,48.19845 -1.895776,18.40901 5.234653,30.14032 5.234653,30.14032 l 15.279547,33.84701 c 5.234654,-1.34688 15.885061,-12.45 15.885061,-12.45 l -15.279537,-42.33 c 0,0 5.670417,-21.37437 9.201684,-41.06235 3.531259,-19.68797 -5.862805,-28.5218 -5.862805,-28.5218 -15.703976,-5.95336 -15.704011,12.17837 -15.704011,12.17837 z"
     style="stroke-width:0.688189" />
  <path
     id="path57"
     fill="#2f2e41"
     d="m 97.331119,379.33713 -4.210346,12.03687 -4.691393,6.43438 c 0,0 -3.514293,2.34854 -4.391455,-2.04293 -0.877154,-4.39144 11.006913,-20.88205 11.006913,-20.88205 1.878839,-0.74133 2.286281,4.45373 2.286281,4.45373 z"
     style="stroke-width:0.688189" />
  <path
     id="path59"
     fill="#2f2e41"
     d="m 111.84351,238.20116 c 0,0 -21.786379,-29.85542 5.64833,-36.31065 0,0 7.7938,-11.69067 17.37014,-5.94069 a 30.011699,30.011699 0 0 0 15.51117,4.12516 c 4.63968,0 9.07766,1.81553 8.27076,9.07766 -1.61381,14.52425 -10.48975,12.10355 -10.48975,12.10355 0,0 -24.07073,-10.78453 -24.87763,1.319 -0.8069,12.10354 -11.43302,15.62597 -11.43302,15.62597 z"
     style="stroke-width:0.688189" />
  <circle
     id="circle167"
     fill="#e6e6e6"
     r="5.8800888"
     cy="441.82843"
     cx="410.54028"
     style="fill:#ffffff;fill-opacity:1;stroke-width:0.863027" />
</svg>
